<svg xmlns="http://www.w3.org/2000/svg" viewBox="0 0 1024 1024">
   <circle cx="512" cy="512" r="512" style="fill:#263cd9"/>
   <path d="m532.16 513.43-90.792 164.28a10.681 10.681 0 0 0 9.186 15.808h100.83a10.681 10.681 0 0 0 9.186-5.34l53.407-91.22a10.681 10.681 0 0 0 0-10.68l-44.862-73.275a21.363 21.363 0 0 0-36.744.641zm-23.072-88.655-154.67 263.19a10.681 10.681 0 0 1-9.186 5.34h-78.829a10.681 10.681 0 0 1-8.972-16.021l192.26-328.99 24.78-42.726a30.762 30.762 0 0 1 51.699-1.923l25.635 36.744a10.681 10.681 0 0 1 .213 11.322l-42.298 72.42-.427.641zm187.99 183.51-40.589 69.002a10.681 10.681 0 0 0 8.972 16.022h81.392a21.363 21.363 0 0 0 18.158-32.258l-30.976-52.766a21.363 21.363 0 0 0-36.744 0zm-111.73-187.99-17.517 32.044a10.681 10.681 0 0 0 0 10.681l45.075 73.488a21.363 21.363 0 0 0 36.53-.427l17.731-29.908a10.681 10.681 0 0 0 0-10.681l-44.862-75.624a21.363 21.363 0 0 0-36.958.64z" style="fill:#fff"/>
</svg>